<?xml version="1.0" encoding="utf-8"?>
<!-- Generator: Adobe Illustrator 21.0.2, SVG Export Plug-In . SVG Version: 6.00 Build 0)  -->
<svg version="1.1" id="Layer_1" xmlns="http://www.w3.org/2000/svg" xmlns:xlink="http://www.w3.org/1999/xlink" x="0px" y="0px"
	 width="404.7px" height="404.7px" viewBox="0 0 404.7 404.7" style="enable-background:new 0 0 404.7 404.7;" xml:space="preserve"
	>
<style type="text/css">
	.st0{fill:#FFFFFF;}
	.st1{fill:#ED1C24;}
</style>
<g>
	<path class="st0" d="M394.9,202.4c0,106.3-86.2,192.5-192.5,192.5C96.1,394.9,9.9,308.7,9.9,202.4C9.9,96,96.1,9.9,202.4,9.9
		C308.7,9.9,394.9,96,394.9,202.4L394.9,202.4z"/>
	<path class="st1" d="M202.4,398.8c52.5,0,101.8-20.4,138.9-57.5c37.1-37.1,57.5-86.5,57.5-138.9c0-52.5-20.4-101.8-57.5-138.9
		C304.2,26.3,254.8,5.9,202.4,5.9C94,5.9,5.9,94,5.9,202.4c0,52.5,20.4,101.8,57.5,138.9C100.6,378.4,149.9,398.8,202.4,398.8z
		 M17.9,202.4c0-49.3,19.2-95.6,54-130.4c34.8-34.8,81.2-54,130.4-54c49.3,0,95.6,19.2,130.4,54c34.9,34.8,54,81.2,54,130.4
		c0,101.7-82.8,184.5-184.5,184.5c-49.2,0-95.6-19.2-130.4-54C37.1,297.9,17.9,251.6,17.9,202.4L17.9,202.4z M310.5,166.7h8.5
		l-2.9-8.2c-8.8-22.8-24-42.2-44-56.2c-20.5-14.4-44.6-21.9-69.7-21.9c-25.1,0-49.2,7.6-69.7,21.9c-20.1,14-35.3,33.4-44,56.2
		l-2.9,8.2H310.5L310.5,166.7z M139.5,112.2c18.5-12.9,40.2-19.8,62.9-19.8c22.7,0,44.4,6.8,62.9,19.8c15.6,10.9,28,25.5,36.1,42.5
		h-198C111.5,137.7,123.9,123.2,139.5,112.2L139.5,112.2z M310.6,237.8H85.6l2.9,8.1c8.8,22.8,23.9,42.3,44,56.3
		c20.6,14.4,44.7,22,69.8,22s49.3-7.6,69.8-22c20-14,35.3-33.5,44-56.3l2.9-8.1H310.6z M265.3,292.4c-18.5,13-40.2,19.8-62.9,19.8
		c-22.7,0-44.4-6.9-62.9-19.8c-15.6-11-28-25.6-36.2-42.6h198.2C293.3,266.8,281,281.4,265.3,292.4z"/>
	<path d="M104.8,188.8v35.4H96v-35.4H83.3v-8.7h34.2v8.7L104.8,188.8L104.8,188.8z M165.2,224.9c-7.4,0-13.8-3.1-17.1-8l6.4-5.7
		c3.1,3.6,7.1,5.1,11.3,5.1c5.2,0,7.7-1.5,7.7-4.8c0-2.8-1.5-4.1-9.8-6c-8.1-1.9-13.8-4.5-13.8-13.2c0-8,7.1-12.9,15.8-12.9
		c6.9,0,11.9,2.6,16.1,6.9l-6.4,6.2c-2.8-2.9-6-4.5-10-4.5c-4.7,0-6.3,2-6.3,4c0,2.8,1.9,3.6,8.9,5.3c7,1.6,14.8,4,14.8,13.6
		C182.6,219.2,177.3,224.9,165.2,224.9z M231.8,224.9c-7.4,0-13.8-3.1-17.1-8l6.4-5.7c3.1,3.6,7.1,5.1,11.3,5.1
		c5.2,0,7.7-1.5,7.7-4.8c0-2.8-1.5-4.1-9.8-6c-8.1-1.9-13.8-4.5-13.8-13.2c0-8,7.1-12.9,15.8-12.9c6.9,0,11.9,2.6,16.1,6.9l-6.4,6.2
		c-2.8-2.9-6-4.5-10-4.5c-4.7,0-6.3,2-6.3,4c0,2.8,1.9,3.6,8.9,5.3c7,1.6,14.8,4,14.8,13.6C249.1,219.2,243.8,224.9,231.8,224.9z
		 M312,224.2l-3.5-9.8h-16.1l-3.5,9.8h-9.5l16.9-44.1h8.6l16.8,44.1L312,224.2L312,224.2z M302.7,198c-0.9-2.6-1.8-5.2-2.2-6.9
		c-0.4,1.6-1.4,4.3-2.2,6.9l-2.8,8h10.1L302.7,198z M49,153l16.1,5l-1.2,4L47.8,157l-1.8,5.8l-4-1.2l4.8-15.6l4,1.2L49,153L49,153z
		 M68.8,147.5l-19-8.9l6.2-13.2l3.7,1.8l-4.4,9.4l3.3,1.5l2.5-5.4l3.7,1.7l-2.6,5.5l4.6,2.2l4.6-9.8l3.7,1.7L68.8,147.5L68.8,147.5z
		 M71.5,111.7c-1.6-0.1-3,0.4-4,2c-1.7,2.7-0.4,5.7,2.9,7.8c3.2,2.1,6.6,2.1,8.3-0.5c1-1.6,1-3,0-4.9l3.7-1.8
		c1.7,2.8,1.8,5.9-0.3,9.1c-3,4.6-8.5,5.4-14.1,1.8c-5.3-3.5-7-9.1-4-13.7c2.1-3.3,5.1-4.3,8.1-3.9
		C72.1,107.5,71.5,111.7,71.5,111.7z M97.8,103l-6.6-5.9l-5.8,6.4l6.6,5.9l-2.8,3.1l-15.6-14l2.8-3.1l6,5.4l5.8-6.4l-6-5.4l2.8-3.1
		l15.6,14C100.6,99.8,97.8,103,97.8,103z M115.5,87.1L102.3,83c-0.9-0.3-2.1-0.7-2.6-0.9c0.5,0.6,2.2,2.6,2.9,3.5l5.8,7.2l-3.2,2.6
		L92,79.1l3.1-2.5l12.8,4c0.9,0.3,2.1,0.7,2.6,0.9c-0.5-0.6-2.2-2.6-2.9-3.5L102,71l3.2-2.6l13.2,16.3L115.5,87.1L115.5,87.1z
		 M124.2,81.1l-11.1-17.8l3.6-2.2l11.1,17.8C127.8,78.9,124.2,81.1,124.2,81.1z M138.1,56.7c-1.3-1-2.7-1.2-4.4-0.4
		c-2.9,1.4-3.3,4.6-1.6,8.2c1.6,3.4,4.5,5.2,7.4,3.9c1.7-0.8,2.4-2,2.6-4.2l4.1,0.4c0,3.3-1.5,6-4.9,7.6c-5,2.4-10.1,0.2-13-5.8
		c-2.7-5.8-1.2-11.4,3.8-13.8c3.6-1.7,6.5-1,8.9,0.9C140.8,53.4,138.1,56.7,138.1,56.7z M165.8,62.7l-2.9-4l-7.3,2.2l-0.2,5
		l-4.3,1.3l1.6-22.4l3.9-1.2l13.7,17.8L165.8,62.7L165.8,62.7z M157.9,52c-0.8-1.1-1.5-2.2-1.9-2.8c0,0.8,0,2.1-0.1,3.4l-0.2,4.1
		l4.6-1.4L157.9,52z M175,60.6l-3-20.8l4.2-0.6l2.4,16.7l10.4-1.5l0.6,4.1L175,60.6L175,60.6z M210.1,58.7c-3.5-0.2-6.5-1.8-7.9-4.2
		l3.2-2.5c1.4,1.8,3.2,2.6,5.2,2.7c2.5,0.1,3.7-0.5,3.8-2.1c0.1-1.4-0.6-2-4.5-3.1c-3.8-1.1-6.4-2.5-6.2-6.6c0.2-3.8,3.7-6,7.8-5.8
		c3.3,0.2,5.6,1.6,7.5,3.7l-3.2,2.8c-1.2-1.5-2.7-2.3-4.6-2.4c-2.2-0.1-3.1,0.8-3.1,1.7c-0.1,1.3,0.8,1.8,4.1,2.8
		c3.3,0.9,6.9,2.2,6.7,6.8C218.4,56.4,215.8,59,210.1,58.7L210.1,58.7z M234.9,44.6l-3.2,16.6l-4.1-0.8l3.2-16.6l-5.9-1.1l0.8-4.1
		l16,3.1l-0.8,4.1C240.8,45.7,234.9,44.6,234.9,44.6z M253.2,67.3l-0.1-4.9l-7.3-2.4l-3.1,3.9l-4.3-1.4L252.8,45l3.9,1.3l0.9,22.5
		L253.2,67.3L253.2,67.3z M252.9,54c0-1.3,0-2.6,0-3.4c-0.4,0.7-1.2,1.7-2.1,2.8l-2.5,3.2l4.5,1.5L252.9,54L252.9,54z M273.7,76.9
		l-1.5-13.7c-0.1-0.9-0.2-2.2-0.2-2.8c-0.4,0.7-1.5,3.1-2.1,4.1l-4.3,8.2l-3.6-1.9l9.8-18.6l3.5,1.9l1.4,13.3
		c0.1,0.9,0.2,2.2,0.2,2.8c0.3-0.7,1.5-3.1,2.1-4.1l4.2-7.9l3.7,1.9L277,78.7L273.7,76.9L273.7,76.9z M287.4,85.9l-5-3.8l12.6-16.8
		l5.2,3.9c4.8,3.6,6.7,8.5,2.1,14.7C297.8,89.8,291.7,89.1,287.4,85.9L287.4,85.9z M297.6,72.4l-1.8-1.3l-7.7,10.3l1.6,1.2
		c3.5,2.6,6.7,1.8,9-1.3C301.4,77.9,301.2,75.1,297.6,72.4L297.6,72.4z M308.9,105.1l2.2-4.5l-5.4-5.5l-4.5,2.1l-3.1-3.2l20.6-9
		l2.9,2.9l-9.4,20.4L308.9,105.1L308.9,105.1z M314.7,93.2c0.6-1.2,1.2-2.3,1.6-3c-0.7,0.4-1.9,1-3.1,1.6l-3.7,1.7l3.4,3.4
		L314.7,93.2L314.7,93.2z M322.2,122.1l4-7.5l-2.5-3.4l-6.2,4.4l-2.4-3.4l17.1-12.2l5.7,8c2.3,3.2,2.4,7.2-1.2,9.8
		c-2.6,1.8-5,1.9-7.4,0.3l-4.3,8L322.2,122.1z M334.6,110.3l-3.2-4.5l-4.4,3.1l3.2,4.5c1.1,1.6,2.5,1.9,3.9,0.9
		C335.7,113.2,335.6,111.8,334.6,110.3z M330.6,136.3l-2.8-5.6l18.8-9.4l3,5.9c2.7,5.4,2.2,10.6-4.7,14
		C338.1,144.5,333,141.1,330.6,136.3L330.6,136.3z M345.8,128.8l-1-2l-11.5,5.8l0.9,1.9c2,3.9,5.2,4.6,8.6,2.9
		C346.7,135.4,347.7,132.8,345.8,128.8z M339,157.4c-1.1-3.3-0.6-6.7,1.1-8.9l3.5,2c-1.2,1.9-1.2,3.9-0.6,5.8
		c0.8,2.4,1.8,3.3,3.3,2.8c1.3-0.4,1.6-1.3,1.2-5.3c-0.3-4,0-6.9,3.9-8.2c3.6-1.2,6.9,1.3,8.2,5.2c1,3.1,0.6,5.8-0.8,8.3l-3.8-2
		c0.9-1.7,1.2-3.4,0.6-5.2c-0.7-2.1-1.9-2.5-2.7-2.2c-1.3,0.4-1.4,1.4-1.1,4.8c0.3,3.4,0.4,7.3-4,8.7
		C344.1,164.4,340.8,162.8,339,157.4L339,157.4z M53.2,273.6l0.9-2.1c-1.9-1-3.3-2.5-4.3-4.8c-1.8-3.9-1.1-7,2.3-8.5
		c2.7-1.2,5-0.4,7.2,1.5l0.3-0.8c0.7-1.5,1.6-2.7,3.2-3.4c3.1-1.4,5.8,0.4,7.3,3.6c1,2.4,1,4.2,0.5,6.6l-3.6-0.6
		c0.4-1.7,0.2-3.3-0.4-4.6c-0.5-1.1-1.3-1.6-2.1-1.3c-0.8,0.4-1.2,1-1.6,2l-3.7,8c1.1,0,2.3,0,3.8-0.1l0.4,3.5
		c-2.1,0.2-4.1,0.2-5.8-0.1l-2.5,5.4L53.2,273.6L53.2,273.6z M58,262.6c-1.5-1.1-2.7-1.3-3.9-0.8c-1.2,0.5-1.6,1.9-0.8,3.8
		c0.5,1.2,1.2,2,2.2,2.6L58,262.6z M68.6,299.8c-2.1-2.8-2.7-6.2-1.8-8.8l4,0.9c-0.5,2.2,0,4.1,1.2,5.8c1.5,2,2.7,2.5,4,1.6
		c1.1-0.8,1.2-1.8-0.5-5.5c-1.6-3.6-2.2-6.6,1.2-9c3.1-2.2,6.9-0.9,9.4,2.4c1.9,2.6,2.3,5.3,1.8,8.1l-4.2-0.7
		c0.3-1.9,0.1-3.6-1.1-5.1c-1.3-1.8-2.6-1.8-3.3-1.3c-1.1,0.8-0.9,1.8,0.5,4.9c1.3,3.1,2.6,6.8-1.1,9.5
		C75.7,304.9,72,304.5,68.6,299.8L68.6,299.8z M88.5,322.1l2.2-4.5l-5.4-5.5l-4.5,2.1l-3.1-3.2l20.6-9l2.9,2.9l-9.4,20.4L88.5,322.1
		L88.5,322.1z M94.2,310.2c0.6-1.2,1.2-2.3,1.6-3c-0.7,0.4-1.9,1-3.1,1.5l-3.7,1.7l3.4,3.4C92.5,313.8,94.2,310.2,94.2,310.2z
		 M111.3,319.4l-2.4,3.1l5,3.8l-2.4,3.3l-5.1-3.8l-5.3,7.1l-3.3-2.6l12.6-16.8l12,9l-2.5,3.3C119.9,325.9,111.2,319.4,111.3,319.4z
		 M116.1,343.4l10.2-18.4l12.7,7.1l-2,3.6l-9.1-5l-1.8,3.2l5.3,2.9l-2,3.6l-5.3-2.9l-2.5,4.4l9.5,5.3l-2,3.6L116.1,343.4
		L116.1,343.4z M151.2,341.6l-6.1,15.8l-3.9-1.5l6-15.7l-5.6-2.2l1.5-3.8l15.2,5.8l-1.5,3.9L151.2,341.6L151.2,341.6z M169.5,355.8
		l-1.8,8.1l-4.1-1l1.8-8l-4.9-14.2l4.7,1.1l1.8,5.5c0.4,1.4,1.1,3.7,1.3,4.5c0.5-0.7,2.1-2.4,3.1-3.5l4-4.2l4.7,1.1L169.5,355.8z
		 M208.4,367.5l-1.7-4.7H199l-1.6,4.7h-4.5l8-21l4.1,0l8.1,21L208.4,367.5L208.4,367.5z M203.9,355c-0.4-1.2-0.8-2.5-1.1-3.3
		c-0.2,0.8-0.6,2-1,3.3l-1.4,3.8l4.8,0L203.9,355z M228.1,365.8c-5,0.8-8.9-2.1-9.9-8.1l-1.8-11.6l4.1-0.7l1.8,11.6
		c0.5,3.3,2.4,5.2,5.1,4.8c2.6-0.4,3.9-2.7,3.4-6l-1.8-11.6l4.1-0.7L235,355C236,361.1,233.4,365,228.1,365.8L228.1,365.8z
		 M248.9,343.2l5,16.1l-4,1.3l-5-16.1l-5.8,1.8l-1.2-4l15.5-4.8l1.2,3.9L248.9,343.2z M278.7,348.9l-3.9-7.9l-7.7,3.8l3.8,7.9
		l-3.8,1.9l-9.2-18.9l3.8-1.8l3.5,7.2l7.7-3.8l-3.5-7.2l3.8-1.8l9.2,18.9L278.7,348.9L278.7,348.9z M297.3,337.9
		c-4.7,3.3-10,1.6-13.7-3.6c-3.7-5.2-3.4-10.8,1.2-14.1c4.7-3.3,10-1.6,13.7,3.6C302.2,329,302,334.6,297.3,337.9z M287.3,323.6
		c-2.8,1.9-2.3,5.1-0.1,8.2c2.2,3.1,5,4.7,7.8,2.7c2.8-2,2.3-5.1,0.1-8.2C292.9,323.2,290.1,321.6,287.3,323.6z M319.8,318.6
		l-7.9-2.8l-3.1,2.9l5.3,5.5l-3,2.9l-14.6-15.1l7-6.8c2.9-2.7,6.7-3.4,9.8-0.2c2.2,2.3,2.6,4.6,1.4,7.2l8.5,3.1L319.8,318.6z
		 M306.2,308.1l-4,3.8l3.8,3.9l4-3.8c1.4-1.4,1.5-2.7,0.3-4.1C308.9,306.6,307.6,306.8,306.2,308.1z M328.5,309l-16.2-13.4l2.7-3.2
		l16.2,13.4L328.5,309L328.5,309z M327.6,281.9l14.1,9.2l-2.3,3.5l-14.1-9.3l-3.3,5l-3.5-2.3l8.9-13.6l3.5,2.3L327.6,281.9
		L327.6,281.9z M345.3,267l7.5,3.5l-1.8,3.8l-7.5-3.5l-14.9,1.8l2-4.4l5.8-0.6c1.5-0.1,3.8-0.3,4.7-0.3c-0.5-0.7-1.9-2.5-2.8-3.8
		l-3.3-4.8l2-4.3L345.3,267L345.3,267z"/>
</g>
</svg>
